<?xml version="1.0" standalone="no"?>
<!DOCTYPE svg PUBLIC "-//W3C//DTD SVG 20010904//EN"
 "http://www.w3.org/TR/2001/REC-SVG-20010904/DTD/svg10.dtd">
<svg version="1.0" xmlns="http://www.w3.org/2000/svg"
 width="1024.000000pt" height="1024.000000pt" viewBox="0 0 1024.000000 1024.000000"
 preserveAspectRatio="xMidYMid meet">
<metadata>
Created by potrace 1.11, written by Peter Selinger 2001-2013
</metadata>
<g transform="translate(0.000000,1024.000000) scale(0.100000,-0.100000)"
fill="#000000" stroke="none">
<path d="M4858 10235 c-1 -1 -50 -5 -108 -9 -58 -3 -116 -8 -130 -11 -14 -2
-52 -6 -85 -10 -128 -12 -315 -42 -445 -70 -41 -9 -86 -18 -100 -21 -145 -28
-454 -122 -720 -219 -190 -69 -560 -250 -780 -382 -289 -173 -625 -426 -854
-643 -83 -78 -288 -287 -342 -349 -22 -24 -55 -63 -75 -85 -193 -221 -455
-604 -604 -881 -132 -246 -250 -514 -335 -760 -69 -202 -140 -458 -174 -635
-2 -14 -9 -47 -15 -75 -6 -27 -13 -66 -16 -85 -12 -77 -34 -238 -40 -285 -3
-27 -8 -63 -10 -80 -26 -192 -26 -858 0 -1016 2 -13 6 -51 10 -84 3 -33 8 -76
10 -95 11 -75 27 -176 31 -200 3 -14 7 -38 9 -55 6 -39 13 -73 19 -93 3 -9 8
-33 11 -52 6 -36 59 -251 75 -305 34 -116 103 -333 111 -350 5 -11 24 -60 43
-110 132 -349 349 -758 568 -1070 78 -111 250 -339 268 -355 3 -3 47 -52 97
-110 221 -254 486 -500 774 -717 100 -76 353 -247 429 -291 19 -11 71 -41 115
-67 138 -81 473 -241 645 -308 151 -59 244 -91 420 -145 99 -31 355 -95 423
-106 15 -3 35 -7 45 -10 15 -4 52 -11 117 -21 11 -2 49 -8 85 -14 75 -12 122
-18 200 -26 30 -4 71 -8 90 -10 220 -26 874 -26 1009 0 9 2 47 6 83 9 37 4 75
8 85 10 10 2 41 7 68 10 42 6 118 19 235 40 107 20 311 68 423 101 31 9 58 16
59 15 6 -2 301 101 408 143 462 182 916 442 1294 743 468 371 870 819 1179
1312 42 67 77 124 77 127 0 2 20 37 44 77 83 142 208 401 291 608 124 309 251
758 290 1027 4 21 10 63 15 93 9 54 14 85 25 185 23 199 30 335 30 600 0 226
-8 428 -19 495 -3 14 -7 52 -10 85 -8 77 -15 133 -21 165 -3 14 -7 43 -11 65
-16 117 -45 257 -85 418 -71 285 -145 504 -280 827 -34 82 -208 423 -263 515
-336 566 -752 1046 -1249 1438 -245 194 -502 363 -762 502 -49 27 -97 52 -105
56 -33 18 -270 129 -276 129 -3 0 -41 15 -84 34 -334 147 -838 283 -1270 341
-25 3 -56 8 -70 10 -14 2 -61 7 -105 10 -44 4 -98 9 -120 12 -47 4 -642 13
-647 8z m572 -1970 c19 -2 71 -9 115 -15 212 -27 476 -92 645 -157 36 -13 90
-34 120 -45 30 -12 110 -48 176 -80 773 -369 1369 -1049 1636 -1863 50 -153
81 -277 104 -405 41 -236 48 -328 49 -570 0 -174 -10 -371 -20 -403 -2 -7 -6
-37 -10 -67 -7 -70 -40 -230 -69 -345 -170 -654 -565 -1254 -1106 -1681 -93
-73 -322 -227 -385 -259 -22 -11 -42 -23 -45 -26 -8 -9 -251 -124 -325 -154
-38 -15 -83 -33 -100 -41 -81 -35 -330 -103 -485 -133 -226 -45 -337 -55 -595
-55 -281 -1 -464 17 -700 70 -112 24 -356 95 -410 118 -16 7 -50 21 -75 31
-25 10 -73 31 -108 47 -35 15 -66 28 -68 28 -3 0 -65 32 -137 71 -240 128
-470 292 -659 468 -346 321 -605 694 -779 1120 -67 163 -69 171 -119 336 -32
106 -72 297 -86 410 -3 22 -10 72 -16 110 -25 167 -17 564 17 814 49 361 198
784 396 1121 79 136 262 399 298 430 3 3 24 25 45 50 189 218 422 420 671 582
130 85 164 104 320 181 300 149 611 246 934 293 25 4 54 8 64 10 10 2 62 6
115 10 53 3 99 8 101 10 6 5 446 -4 491 -11z"/>
</g>
</svg>
